# xmcd CD database file
# Copyright (C) 1997 Ti Kan
# 
# Track frame offsets:
#     150
#     14722
#     26437
#     40402
#     53440
#     67835
#     79622
#     91520
#     104140
#     117152
#     137730
#     152260
#     165528
#     177661
# 
# Disc length: 2532 seconds
# 
# Revision: 1
# Processed by: cddbd v1.4b41PL1 Copyright (c) Steve Scherf et al.
# Submitted via: DiscPlay 4.0.3
# 
DISCID=a709e20e
DTITLE=Freddy King - Texas Sensation
DYEAR=1900
DGENRE=
TTITLE0=You've Got To Love Her With A Feeling
TTITLE1=Hideaway
TTITLE2=Have You Ever Loved A Woman
TTITLE3=Sen-Sa-Shun
TTITLE4=Look Ma, I'm cryin'
TTITLE5=San-Ho-Zay
TTITLE6=I'm Tore Down
TTITLE7=Driving Sideways
TTITLE8=Takin' Care Of Business
TTITLE9=Someday After A While (You'll Be Sorry)
TTITLE10=The Stumble
TTITLE11=She Put The Whammy On Me
TTITLE12=High Rise
TTITLE13=The Welfare (Turns Its Back On You)
EXTD=
EXTT0=
EXTT1=
EXTT2=
EXTT3=
EXTT4=
EXTT5=
EXTT6=
EXTT7=
EXTT8=
EXTT9=
EXTT10=
EXTT11=
EXTT12=
EXTT13=
PLAYORDER=
